<?xml version="1.0" encoding="UTF-8"?><svg id="selber_nachgezeichnet" xmlns="http://www.w3.org/2000/svg" viewBox="0 0 413.6266 332.3733"><defs><style>.cls-1{fill:#fff;}.cls-2{fill:#ef7a2f;}.cls-3{fill:#cc621e;}.cls-4{fill:#f6a35c;}.cls-5{fill:#a1441a;}.cls-6{fill:#f1864b;}.cls-7{fill:#8f4314;}</style></defs><path id="Hauptform" class="cls-2" d="M410.9949,124.6212c-1.1227-1.8076-3.4609-4.7884-9.4409-7.5523-14.426-6.6689-33.6107-4.4815-48.3379,4.5314-4.0289,2.4656-16.2125,9.9222-20.7697,23.4137-.5255,1.5541-1.3573,5.9455-3.0215,14.7278-2.9441,15.5395-2.9722,18.9672-6.4194,22.6582-4.8303,5.1722-11.6971,5.8537-13.5954,6.0425-8.741,.8674-15.3319-3.5395-20.7697-7.1754-3.2957-2.2035-8.2385-6.0883-12.8399-12.4618,3.2223-1.3028,7.6791-3.4145,12.4618-6.7974,3.9371-2.7852,16.0616-11.5933,21.5258-26.8127,6.4406-17.9386,1.3017-38.3039-9.8189-51.7363-10.692-12.9156-24.7245-16.7769-35.12-19.6373-15.4535-4.252-28.7557-3.3818-36.631-2.2654-1.3022-.7767-3.2825-2.1031-5.2869-4.1545-4.8911-5.0041-4.0581-8.3136-7.9304-12.4618-4.9318-5.2835-11.9042-5.9363-13.5948-6.0425-2.0377-.1279-7.0538-.4429-10.9519,2.6435-2.5299,2.0038-1.9987,3.3892-4.1539,4.9095-4.2233,2.9791-8.476-.7813-13.9723,.3775-7.328,1.5455-11.8537,10.7769-13.2173,16.6163-1.6831,7.2076,.4521,13.5277,2.6435,20.0147,1.7577,5.2032,2.7771,5.7614,4.1539,9.8189,.8731,2.5735,2.7077,8.9664,.7549,22.6582-1.877,13.16-3.4913,24.4802-11.7069,35.12-5.1171,6.6282-10.7821,10.0478-21.9027,16.6163-8.1054,4.7873-20.1117,11.0167-35.8755,16.2383-.9546-.8335-2.3452-1.939-4.1539-3.0209-9.2475-5.5307-25.0263-7.8048-35.1206,1.133-1.3143,1.1634-8.8769,8.1346-7.9304,18.1262,.8748,9.2355,8.3933,14.461,10.9513,16.2388,10.528,7.3166,22.5234,4.7247,24.9242,4.1539-.6798,1.3103-1.7537,3.0869-3.3984,4.9095-1.0332,1.1445-7.3511,9.9541-16.434,9.9576-9.3141,.0029-13.8116-10.2675-16.7946-15.9812-2.9395-5.6306-3.0347-6.3785-5.6684-11.3482-3.9491-7.4525-14.9131-14.7255-26.4347-11.7063C7.2509,198.9583,.8975,208.0653,.1248,216.3875c-.1715,1.8512-.736,7.9315,3.399,12.4618,2.5465,2.7903,6.8123,4.9232,10.9513,4.1539,.6609-.1228,4.1212-.7653,4.9095-3.0209,.6557-1.8759-1.2064-2.9527-1.5105-6.0425-.2473-2.5069,.5507-6.1423,3.0209-7.5523,2.7731-1.5839,6.7991,.1256,9.0634,2.2654,3.45,3.2613,3.0209,7.7216,3.7765,13.2173,0,.0011,1.4336,10.4362,7.5523,20.0153,8.6567,13.5518,27.8648,14.5752,39.652,10.9513,3.5872-1.1026,7.9298-3.882,16.6163-9.4409,9.5642-6.121,13.9057-10.1568,22.2807-12.4624,4.4677-1.2299,8.3434-1.4887,10.9513-1.5105,1.1703,1.2741,3.029,3.0359,5.6644,4.532,3.1288,1.7755,6.1537,2.4966,14.7284,3.3984,11.1355,1.1714,11.0098,.479,14.3497,1.5105,2.8758,.8886,8.1375,2.5901,12.0849,7.5529,1.3825,1.7388,6.0419,7.5965,4.1539,13.9728-2.3819,8.0428-13.0177,9.6038-14.7278,9.8183-3.6543,.4584-10.9892,.3385-12.4624-3.399-1.0699-2.7146,1.2328-6.6299,3.7765-8.6853,3.4042-2.7507,6.3958-1.4881,10.9513-4.9095,1.7072-1.2816,3.6141-2.714,3.399-4.1539-.4325-2.8953-9.3267-5.05-16.9938-3.7765-1.4307,.2375-15.1667,2.7364-18.8817,13.9728-.3448,1.0429-2.2878,7.2552,.7549,13.2173,.6626,1.2982,2.1318,3.7013,7.9304,7.5523,4.3249,2.8724,9.551,6.3431,16.9938,7.9304,16.5641,3.5327,30.1515-5.2405,32.4771-6.7974,9.8229-6.576,14.3968-15.407,16.2383-19.6373,1.8702,1.3229,4.684,3.1517,8.3079,4.9095,16.2887,7.9006,31.966,6.1251,47.5824,4.1539,11.3472-1.4319,19.6654-2.5758,28.7006-8.3079,4.2348-2.6871,9.8401-6.3522,12.8399-13.5948,3.1873-7.6975,1.561-14.9171,.7549-17.7493,4.2245,1.0991,7.6849,2.1828,10.1964,3.0215,4.3834,1.4634,4.8406,1.9396,6.0425,3.0209,3.1804,2.8626,1.4244,7.9453,.3775,9.4409-1.3217,1.8879-5.7149,5.3059-12.4624,10.1964-6.4291,4.6593-7.9482,4.3541-12.0843,7.9304-9.1076,7.8748-12.1325,18.3419-13.2173,22.2807-1.6361,5.9403-3.8551,13.9958-.3775,22.6582,.7699,1.9178,4.8297,12.0304,12.8399,12.8393,2.854,.2886,5.2823-.6982,6.7974-1.5105-2.2356-4.2119-3.6445-7.8994-4.532-10.5739-2.0176-6.0815-3.4913-10.727-1.8879-15.8608,.561-1.7962,1.3384-3.1385,2.266-4.5314,8.449-12.6907,20.7691-19.2592,20.7697-19.2598,9.224-4.9175,10.0501-2.3061,22.6588-8.3079,7.9958-3.8057,12.0556-5.7986,15.1053-10.1964,5.9461-8.5758,3.5877-19.32,3.0209-21.9027-4.3587-19.8616-26.5396-27.9491-28.7001-28.7006,1.1198-.4647,2.7903-1.2735,4.5314-2.6435,5.0041-3.9377,7.5277-10.1017,9.4409-24.9242,2.1765-16.8578,.1497-18.4704,3.0209-27.5676,1.5437-4.8905,3.4558-10.7224,8.6859-16.2383,.977-1.0303,9.3485-9.6021,21.9032-10.1964,2.4656-.1165,10.859-.514,12.8393,3.7765,1.1927,2.5832-.4291,5.8061-.7549,6.4199-1.3349,2.5115-4.0168,2.0503-5.665,4.5314-1.051,1.5828-1.1754,3.3474-1.1324,4.532,.7991,1.063,2.3641,2.8494,4.9089,4.1539,1.0033,.5146,3.3238,1.7044,6.0425,1.5105,3.9549-.2817,6.5794-3.337,7.9304-4.9095,5.256-6.1176,8.0291-17.2387,3.0209-25.3017Zm-153.321,127.2644c-7.7594,4.4729-17.3667-.0614-19.6373-1.133-8.8643-4.1843-12.4876-11.6111-13.5948-13.9728-.5857-1.2495-4.0289-8.5924-1.5105-10.9513,1.0561-.9896,2.597-.5731,6.7974,0,9.1225,1.2443,8.3371,.1629,12.0843,1.133,5.6277,1.4565,9.2057,4.3639,13.5948,7.9304,5.2089,4.232,8.0744,6.5599,7.9304,9.8183-.1767,4.0122-4.7941,6.6735-5.6644,7.1754Z"/><g id="Tentakeln_innen"><path class="cls-4" d="M19.3845,229.9823c.3729-.8322-.0169-1.6027-.2521-2.6433-.4472-1.9784-1.0234-3.3686-1.1327-4.5317-.2174-2.3097,.9144-4.1131,2.2657-5.5388,1.7194-1.8141,5.0341-1.3626,5.7906-1.0069,2.7995,1.3162,3.7711,2.0932,4.2575,2.8031,1.0713,1.5631,1.8125,2.8082,2.334,5.5833,.4797,2.5529,.5578,4.5635,.853,6.7767,.5188,3.8892,1.5081,6.7899,2.4997,9.7608,1.1485,3.4403,3.1615,9.471,8.4341,14.7279,5.379,5.3631,11.4085,7.1876,13.9726,7.9304,11.774,3.411,21.8347-.4703,24.4205-1.5106,3.0301-1.219,6.7615-3.666,14.2244-8.5597,5.6389-3.6976,7.0272-4.9779,11.8328-7.6787,7.1333-4.0089,10.9952-5.078,12.9655-5.5386,3.5869-.8387,6.8899-1.1744,9.0317-1.1721-1.7204-2.6014-3.7623-4.7903-5.507-7.5137-.8789-1.3719-3.808-.5784-6.6718,.2518-7.0696,2.0497-11.4857,6.3531-16.2383,9.5668-3.87,2.6168-10.7672,7.2809-18.7561,10.8256-7.5592,3.3541-14.0208,6.1228-22.1548,4.9093-2.3641-.3527-8.2138-1.3017-13.2173-5.7905-5.2264-4.6885-6.8605-10.8439-8.5597-17.2453-2.5663-9.6672-.7389-12.1304-4.028-16.3643-2.9076-3.7426-8.7433-7.492-14.3503-5.7905-3.2458,.985-6.1319,3.7106-7.1752,7.1752-.9179,3.049-.5051,6.9922,1.7623,9.1892,.94,.9107,3.0845,2.0862,3.399,1.3845Z"/><path class="cls-4" d="M172.5188,259.527c-.2702-1.732-4.0848-2.4328-5.5448-2.7011-2.2405-.4116-6.6267-.8872-12.9374,.924-4.2713,1.2259-8.35,2.3966-10.8048,6.1133-.6399,.9688-1.653,2.5492-1.4218,4.4783,.1228,1.0234,.6781,2.8332,5.6156,6.1133,2.2628,1.5032,5.5944,3.4138,10.0231,4.9759-.6411-.1992-1.7328-.8943-2.488-2.2746-1.1938-2.1817-.1047-4.6242,.5685-5.829,1.7058-3.0525,4.5546-4.3034,5.4737-4.6916,1.5707-.6634,1.3877-.1852,3.8384-.9952,3.9841-1.3169,5.7691-3.0109,6.6821-4.123,.6715-.8179,1.0951-1.3498,.9953-1.9903Z"/><path class="cls-4" d="M233.9931,248.7253c-.7291-.8338-5.1754-4.7269-8.6584-10.1293-3.7713-5.8496-3.0665-12.648-2.7723-15.1411,.4122-3.4932,1.5363-6.2385,3.7673-11.5868,1.3392-3.2107,3.5765-6.589,6.2556-12.9374,.903-2.1398,1.709-4.62,1.2974-4.8782-.4021-.2523-1.7907,1.7589-3.7142,3.883-4.3825,4.8396-6.574,7.2593-7.1795,8.1036-1.8922,2.6386-4.9092,6.9269-6.5398,13.2218-.6726,2.5959-1.4683,5.6673-.9953,9.7386,.6256,5.3856,3.068,9.0522,4.2652,10.8049,3.8238,5.5974,8.4478,7.7236,9.6675,8.1036,1.3496,.4206,3.0556,.8393,3.0565,.8394,1.1373,.0492,1.6545,.0971,1.5501-.0222Z"/><path class="cls-4" d="M254.9771,253.0583c-.1176-.4115,3.2295-1.0115,6.0422-3.7674,.9454-.9262,1.9539-2.3007,1.8482-4.487-.0838-1.7335-.3756-2.8166-.6398-3.3324-.7742-1.511-1.3622-2.0031-2.0615-2.559-3.9236-3.119-2.1197-2.1936-5.971-5.0471-3.6703-2.7195-5.5055-4.0792-7.6771-5.047-2.4794-1.105-4.5888-1.5731-7.1086-2.1325-4.1014-.9103-6.7621-1.0177-6.7529-1.1374,.0135-.1725,5.5574-.2992,12.1555,.7109,9.6503,1.4775,15.5192,4.4627,16.7761,5.1181,4.4124,2.3007,8.4791,4.4966,9.8094,8.8856,.2105,.6941,.9239,3.1694-.0708,5.8289-1.6585,4.4333-6.7636,5.9013-7.7483,6.1844-.3135,.0902-2.3652,.3207-6.4687,.7819-1.0231,.115-2.0675,.2276-2.1326,0Z"/><path class="cls-4" d="M309.5703,240.9028c1.3048,.4196,3.7177,.9166,6.6818,1.9192,1.8495,.6256,3.1741,.9506,5.4737,1.9194,3.0797,1.2974,3.7552,1.9782,4.123,2.4169,1.3886,1.657,1.5452,3.634,1.5638,4.3362,.0714,2.6866-1.4055,4.4527-1.1373,4.6205,.3029,.1896,2.4926-1.8723,3.7673-4.9049,.5516-1.312,2.1782-5.1814,.6399-8.5302-.9423-2.0517-4.2299-3.3108-10.8051-5.8289-5.5726-2.1342-8.5769-2.703-11.5867-1.635-.6712,.2381-1.2027,.5081-1.5638,.7108,.6193,.9615,1.0903,1.7612,1.4216,2.3459,.323,.5697,.6414,1.161,.7819,1.4217,.3984,.7397,.5272,1.1721,.6399,1.2084Z"/><path class="cls-4" d="M307.5088,330.5407c-.4977-1.2084-1.467-2.6145-2.2749-4.5495-1.9241-4.6083-2.7426-8.1331-3.7674-11.5157-1.7149-5.6601-.357-9.0587-1.0663-9.17-.6158-.0965-1.5377,2.7809-1.9903,4.1941-.8906,2.7799-2.0035,6.255-1.635,10.947,.265,3.3735,.4807,6.1193,2.6303,8.3169,1.6373,1.674,4.0082,2.6327,6.1841,2.488,.6307-.042,2.1852-.0658,1.9195-.7109Z"/><path class="cls-4" d="M336.2063,211.2264c2.4559-.107,4.2213-1.8271,5.7903-3.3987,3.6196-3.6253,5.0678-7.7744,5.7906-10.0703,1.5248-4.8432,2.4444-9.7745,3.2728-20.3925,.8608-11.0354,.3078-11.3548,1.2589-16.1125,.8094-4.0485,1.9995-10.0012,5.6644-15.735,5.1057-7.9878,12.9824-12.7399,19.5113-14.602,.0009-.0003,5.2256-1.379,12.6618-.8089,.3812,.0293,1.6426,.2945,2.5424,.5721,.8809,.2718,2.8602,.9433,3.7606,2.981,1.1016,2.4932,.5687,4.3599-.853,6.2555-.7562,1.0083-1.7387,1.3714-4.0755,3.3173-.4736,.3943-1.2147,.8867-1.1341,1.1637,.185,.6361,2.9156,.7233,4.595,.3661,.5969-.1271,4.5308-1.0286,6.6718-4.6575,1.7629-2.9881,1.8386-7.026,.2516-9.8186-4.5105-7.9364-21.8657-4.7828-24.4205-4.2799-6.7248,1.324-11.3546,4.0611-13.5951,5.4127-3.3261,2.0064-7.2107,4.4082-10.1961,9.0634-1.3192,2.0572-2.0004,3.8334-3.0212,6.9233-3.5533,10.7557-4.9089,17.7482-4.9092,17.749-4.1493,21.4026-1.5159,21.9286-4.9092,26.3087-2.9349,3.7885-8.564,8.118-13.721,12.0845-1.6163,1.2431-2.9785,2.2346-3.9021,2.8952,1.4746,.3792,3.6511,1.0283,6.1681,2.1399,3.6336,1.6046,4.719,2.734,6.7974,2.6435Z"/></g><g id="Saugnäpfe"><ellipse class="cls-5" cx="118.5437" cy="235.4085" rx="2.671" ry="1.1892" transform="translate(-65.1244 46.3693) rotate(-17.4461)"/><ellipse class="cls-5" cx="112.6954" cy="241.2106" rx="3.5876" ry="1.8882" transform="translate(-95.0103 74.6538) rotate(-26.2319)"/><ellipse class="cls-5" cx="103.0118" cy="244.1261" rx="2.7064" ry="1.6994" transform="translate(-84.3606 56.7747) rotate(-22.1253)"/><ellipse class="cls-5" cx="99.1485" cy="249.5961" rx="2.8323" ry="1.6657" transform="translate(-111.5147 83.0138) rotate(-30)"/><ellipse class="cls-5" cx="124.688" cy="237.6784" rx="3.2495" ry="1.9734" transform="translate(-42.1502 27.433) rotate(-10.7516)"/><ellipse class="cls-5" cx="91.9447" cy="251.2594" rx="2.671" ry="1.1892" transform="translate(-95.2046 60.0521) rotate(-24.2861)"/><ellipse class="cls-5" cx="89.565" cy="255.7978" rx="2.444" ry="1.3174" transform="translate(-103.84 65.9323) rotate(-26.2319)"/><ellipse class="cls-5" cx="81.8419" cy="260.3757" rx="2.063" ry="1.1892" transform="translate(-74.2981 36.5143) rotate(-17.4461)"/><ellipse class="cls-5" cx="65.7806" cy="260.8227" rx="1.8882" ry="3.5876" transform="translate(-199.195 307.1206) rotate(-85.7559)"/><ellipse class="cls-5" cx="83.0921" cy="255.7978" rx="2.7064" ry="1.6994" transform="translate(-90.2234 50.1317) rotate(-22.1253)"/><ellipse class="cls-5" cx="74.9159" cy="262.2149" rx="2.8323" ry="1.6657" transform="translate(-15.7796 5.0314) rotate(-3.4803)"/><ellipse class="cls-5" cx="267.6425" cy="243.8115" rx="3.2495" ry="1.9734" transform="translate(-9.5757 476.6777) rotate(-82.3629)"/><ellipse class="cls-5" cx="58.5209" cy="262.2149" rx="1.1892" ry="2.671" transform="translate(-207.4533 224.2795) rotate(-69.3017)"/><ellipse class="cls-5" cx="54.7373" cy="258.5433" rx="1.128" ry="2.134" transform="translate(-206.465 218.3663) rotate(-69.3017)"/><ellipse class="cls-5" cx="76.5542" cy="258.0124" rx="2.063" ry="1.1892" transform="translate(-73.8327 34.8203) rotate(-17.4461)"/><ellipse class="cls-5" cx="254.7686" cy="231.8343" rx="1.1462" ry="1.8298" transform="translate(-52.0725 388.3677) rotate(-69.3297)"/><ellipse class="cls-5" cx="335.8205" cy="206.9595" rx="3.5876" ry="1.8882" transform="translate(-56.8919 169.749) rotate(-26.2319)"/><ellipse class="cls-5" cx="162.7488" cy="259.888" rx="1.6994" ry="2.7064" transform="translate(-108.4709 402.9574) rotate(-85.7559)"/><ellipse class="cls-5" cx="261.6818" cy="236.8838" rx="1.6657" ry="2.8323" transform="translate(-90.7648 217.5801) rotate(-39.0175)"/><ellipse class="cls-5" cx="152.7636" cy="261.2004" rx="3.2495" ry="1.9734" transform="translate(-46.0454 33.0835) rotate(-10.7516)"/><ellipse class="cls-5" cx="159.3156" cy="264.7326" rx="2.671" ry="1.1892" transform="translate(-94.7839 88.9537) rotate(-24.2861)"/><ellipse class="cls-5" cx="150.5731" cy="273.8133" rx="1.3174" ry="2.444" transform="translate(-149.5134 186.6693) rotate(-45)"/><ellipse class="cls-5" cx="152.2116" cy="267.9381" rx="2.063" ry="1.1892" transform="translate(-153.2472 227.2674) rotate(-52.8156)"/><ellipse class="cls-5" cx="355.2274" cy="143.4288" rx="2.3737" ry="1.3669" transform="translate(24.798 337.271) rotate(-52.3847)"/><ellipse class="cls-5" cx="146.1333" cy="267.2509" rx="2.7064" ry="1.6994" transform="translate(-157.108 238.5687) rotate(-55.9268)"/><ellipse class="cls-5" cx="263.5219" cy="250.0657" rx="2.4157" ry="1.4206" transform="translate(-83.391 142.232) rotate(-26.2319)"/><ellipse class="cls-5" cx="343.2967" cy="201.623" rx="3.2495" ry="1.9734" transform="translate(-2.9622 398.1152) rotate(-60)"/><ellipse class="cls-5" cx="324.504" cy="243.0461" rx="1.1356" ry="1.9677" transform="translate(-17.5494 460.701) rotate(-69.3017)"/><ellipse class="cls-5" cx="48.5241" cy="257.2296" rx="1.1107" ry="1.8725" transform="translate(-184.0938 137.1856) rotate(-52.0209)"/><ellipse class="cls-5" cx="46.5292" cy="253.5719" rx=".9502" ry="1.5376" transform="translate(-187.7107 145.89) rotate(-54.9136)"/><ellipse class="cls-5" cx="42.5265" cy="251.3939" rx=".9245" ry="1.4087" transform="translate(-134.0128 67.4339) rotate(-34.2193)"/><ellipse class="cls-5" cx="42.0366" cy="247.5976" rx=".9245" ry="1.1662" transform="translate(-131.9627 66.5012) rotate(-34.2193)"/><ellipse class="cls-5" cx="38.889" cy="245.3046" rx=".9245" ry="1.4793" transform="translate(-80.9118 27.7398) rotate(-19.8308)"/><ellipse class="cls-5" cx="38.1984" cy="240.2268" rx=".9245" ry="1.4793" transform="translate(-79.2302 27.2044) rotate(-19.8308)"/><ellipse class="cls-5" cx="35.9251" cy="236.8326" rx=".9245" ry="1.4087" transform="translate(-57.1982 16.1329) rotate(-14.2517)"/><ellipse class="cls-5" cx="36.761" cy="233.0972" rx=".9245" ry="1.1662" transform="translate(-56.2529 16.2238) rotate(-14.2517)"/><ellipse class="cls-5" cx="34.971" cy="229.3764" rx=".9502" ry="1.5376" transform="translate(-16.1041 3.0407) rotate(-4.0478)"/><ellipse class="cls-5" cx="34.971" cy="224.6712" rx=".9245" ry="1.4087" transform="translate(-74.1444 25.187) rotate(-19.8308)"/><ellipse class="cls-5" cx="32.8797" cy="221.0247" rx=".724" ry="1.1662" transform="translate(-91.2991 35.249) rotate(-25.2988)"/><ellipse class="cls-5" cx="31.1854" cy="217.4403" rx=".724" ry="1.1662" transform="translate(-137.0712 76.2223) rotate(-41.8315)"/><ellipse class="cls-5" cx="27.4101" cy="215.7084" rx=".724" ry="1.1662" transform="translate(-181.9303 156.9036) rotate(-67.0679)"/><ellipse class="cls-5" cx="24.3242" cy="213.9988" rx="1.072" ry=".724" transform="translate(-20.9411 3.4324) rotate(-5.6475)"/><ellipse class="cls-5" cx="20.3489" cy="215.7084" rx="1.1662" ry=".724" transform="translate(-98.0865 34.2773) rotate(-27.7468)"/><ellipse class="cls-5" cx="17.388" cy="218.7954" rx="1.1662" ry=".9245" transform="translate(-194.3013 160.8176) rotate(-70.1395)"/><ellipse class="cls-5" cx="16.1914" cy="222.7119" rx=".5614" ry=".887" transform="translate(-21.838 2.6744) rotate(-5.6475)"/><ellipse class="cls-5" cx="17.7434" cy="225.2523" rx=".5614" ry=".887" transform="translate(-75.3632 19.3771) rotate(-19.8308)"/><ellipse class="cls-5" cx="18.5017" cy="228.1431" rx=".5614" ry=".887" transform="translate(-85.1714 24.0757) rotate(-22.2957)"/><ellipse class="cls-5" cx="317.7195" cy="241.2951" rx="1.1462" ry="1.8298" transform="translate(-20.1945 453.3875) rotate(-69.3297)"/><ellipse class="cls-5" cx="328.0866" cy="247.1032" rx="1.1356" ry="1.9677" transform="translate(-44.2575 73.723) rotate(-12.017)"/><ellipse class="cls-5" cx="311.7738" cy="239.7891" rx="1.8298" ry="1.1462"/><ellipse class="cls-5" cx="347.9729" cy="185.2597" rx="2.7064" ry="1.6994" transform="translate(137.4693 518.5681) rotate(-85.7559)"/><ellipse class="cls-5" cx="360.1703" cy="139.4989" rx="2.112" ry="1.3332" transform="translate(-18.2902 216.6367) rotate(-32.6923)"/><ellipse class="cls-5" cx="347.9391" cy="165.6549" rx="1.6155" ry="1.1892" transform="translate(156.9891 500.3805) rotate(-85.7559)"/><ellipse class="cls-5" cx="346.9293" cy="177.5731" rx="1.3174" ry="2.0961"/><ellipse class="cls-5" cx="344.8548" cy="193.4088" rx="2.7064" ry="1.6994" transform="translate(24.5786 425.2599) rotate(-65.1867)"/><ellipse class="cls-5" cx="349.5774" cy="171.2928" rx="2.0961" ry="1.3174" transform="translate(139.5062 499.0362) rotate(-83.4465)"/><ellipse class="cls-5" cx="350.5146" cy="154.2203" rx="1.8565" ry="1.1892" transform="translate(111.6795 453.5566) rotate(-75.1629)"/><ellipse class="cls-5" cx="350.4528" cy="160.0541" rx="2.0961" ry="1.3174" transform="translate(105.9943 457.8368) rotate(-75.1629)"/><ellipse class="cls-5" cx="353.8176" cy="149.2422" rx="2.0961" ry="1.3174" transform="translate(69.8691 407.7638) rotate(-65.1867)"/><ellipse class="cls-5" cx="368.3102" cy="133.2692" rx="1.6155" ry="1.0477" transform="translate(-22.6999 156.1648) rotate(-23.2433)"/><ellipse class="cls-5" cx="363.3395" cy="134.5223" rx="1.8565" ry="1.1892" transform="translate(-23.5978 154.3049) rotate(-23.2433)"/><ellipse class="cls-5" cx="372.2155" cy="129.4872" rx="2.0961" ry="1.3174" transform="translate(-19.6576 87.6926) rotate(-13.0941)"/><ellipse class="cls-5" cx="383.2865" cy="126.9244" rx="1.6155" ry="1.0477" transform="translate(-3.4147 10.8187) rotate(-1.61)"/><ellipse class="cls-5" cx="388.0675" cy="128.1143" rx="1.8565" ry="1.1892" transform="translate(-3.4462 10.9535) rotate(-1.61)"/><ellipse class="cls-5" cx="378.262" cy="129.0003" rx="2.0961" ry="1.3174" transform="translate(-16.0612 63.9429) rotate(-9.4626)"/><ellipse class="cls-5" cx="400.909" cy="133.2692" rx="1.0039" ry="1.6403" transform="translate(-19.7684 94.2915) rotate(-13.0941)"/><ellipse class="cls-5" cx="396.8984" cy="130.767" rx="1.0477" ry="1.6155" transform="translate(111.6401 436.1455) rotate(-65.1867)"/><ellipse class="cls-5" cx="393.5287" cy="127.352" rx="1.1892" ry="1.8565" transform="translate(157.7241 467.1749) rotate(-73.1754)"/><ellipse class="cls-5" cx="398.4514" cy="137.6414" rx="1.3193" ry=".9224" transform="translate(199.4565 509.2726) rotate(-80.8896)"/><ellipse class="cls-5" cx="398.4514" cy="141.3193" rx="1.4495" ry=".8186" transform="translate(-5.4079 266.3488) rotate(-36.73)"/><ellipse class="cls-5" cx="394.1245" cy="143.2334" rx="1.6155" ry="1.0477" transform="translate(-22.2022 93.0135) rotate(-13.0941)"/><ellipse class="cls-5" cx="299.9014" cy="318.6134" rx="1.0314" ry="1.4923" transform="translate(-26.0473 26.7011) rotate(-4.8859)"/><ellipse class="cls-5" cx="300.937" cy="324.5899" rx="1.1462" ry="1.8298" transform="translate(-117.1034 179.1116) rotate(-27.9775)"/><ellipse class="cls-5" cx="304.2826" cy="328.2333" rx="1.1462" ry="1.8298" transform="translate(-139.7835 384.1824) rotate(-54.3495)"/><ellipse class="cls-5" cx="300.2212" cy="313.5212" rx=".714" ry="1.4923" transform="translate(-11.7261 11.665) rotate(-2.1833)"/><ellipse class="cls-5" cx="302.1207" cy="321.5366" rx=".7908" ry="1.2179" transform="translate(-86.1084 111.9159) rotate(-18.4168)"/><ellipse class="cls-5" cx="220.1745" cy="229.7395" rx="1.4504" ry="2.1612" transform="translate(-14.9903 15.3693) rotate(-3.8664)"/><ellipse class="cls-5" cx="226.2324" cy="243.0134" rx="1.6657" ry="2.8323" transform="translate(-102.5307 196.6298) rotate(-39.0175)"/><ellipse class="cls-5" cx="220.1482" cy="236.2398" rx="1.7429" ry="2.6541" transform="translate(-49.7491 58.9549) rotate(-13.72)"/><ellipse class="cls-5" cx="217.7462" cy="224.2508" rx="2.4157" ry="1.4206" transform="translate(-24.501 421.781) rotate(-85.0372)"/><ellipse class="cls-5" cx="220.7519" cy="219.3997" rx="2.1098" ry="1.3727" transform="translate(-67.312 337.2419) rotate(-67.0727)"/><ellipse class="cls-5" cx="221.5263" cy="212.5425" rx="1.9296" ry="1.1575" transform="translate(-65.2202 322.1995) rotate(-64.7421)"/><ellipse class="cls-5" cx="225.6854" cy="209.5304" rx="1.9073" ry="1.1821" transform="translate(-68.6159 300.2144) rotate(-60)"/><ellipse class="cls-5" cx="226.39" cy="204.5547" rx="1.5804" ry=".9727" transform="translate(-63.9546 298.3369) rotate(-60)"/><ellipse class="cls-5" cx="230.0448" cy="200.5455" rx="1.7888" ry=".8738" transform="translate(-58.6551 299.4974) rotate(-60)"/></g><g id="Augäpfel"><path class="cls-1" d="M177.3313,83.7421c-1.5257-.4515-3.6896-1.2734-5.9478-2.8323-1.7399-1.2013-6.6824-4.6136-8.0248-11.0458-.3385-1.6219-1.3361-7.6912,2.6435-12.6508,3.4469-4.2959,8.4272-5.0163,10.9516-5.3814,5.5947-.8092,10.0214,.9265,11.8956,1.7939,.2303-1.0036,.693-2.4983,1.6992-4.0596,2.8672-4.4492,7.6806-5.6133,9.0634-5.9478,1.9-.4595,5.3193-1.2865,8.78,.3776,2.5207,1.2122,3.7601,3.1193,5.4757,5.7589,.8324,1.2806,3.0542,4.964,3.7765,10.2906,.2742,2.0225,.2573,3.7273,.1887,4.9093-2.9466,.9318-5.3374,1.933-7.0805,2.7378-5.9997,2.7701-7.8618,4.8438-8.4025,5.4758-1.0765,1.2586-1.7586,2.4656-2.1713,3.3043-.8892,.0049-2.0864,.0442-3.4934,.1889-4.0011,.4115-6.9491,1.3917-7.8357,1.6994-3.7168,1.2896-6.7472,2.3515-8.1194,4.1539-.2114,.2778-.8869,1.2342-1.9826,1.4162-.5863,.0974-1.0991-.0591-1.4161-.1889Z"/></g><g id="Pupillen"><path d="M183.5625,79.588c-.9609-.3306-2.5112-1.0154-3.8708-2.4546-3.5636-3.7727-2.4375-9.1543-2.266-9.913,.2481-1.0977,1.1273-4.7176,4.6261-6.9863,2.8709-1.8616,6.6325-2.2475,9.8186-.8497,3.0123,1.3216,4.4368,3.7667,4.8148,4.4373,1.2423,2.2042,1.326,4.2778,1.4164,6.5142,.0926,2.2961-.1962,4.1924-.4721,5.4758-3.0703,.0614-5.2,.8066-6.6087,1.5106-1.238,.6188-2.5316,1.512-4.7204,1.9826-1.1264,.2422-2.0876,.286-2.7378,.2831Z"/><path d="M205.9373,69.2031c-1.5142-.331-2.4243-1.5843-3.3987-2.9267-.5461-.7525-2.0483-2.8825-2.1713-6.0422-.0376-.9679-.1078-3.9203,1.9826-6.6087,.6359-.8176,2.0354-2.3361,4.343-3.1156,.5602-.1892,4.4852-1.4491,7.5526,.7554,2.023,1.454,2.5726,3.6242,3.3043,6.5142,.7842,3.097,.7271,5.7546,.5665,7.4584-2.8755,.4612-5.0162,1.2591-6.4199,1.8882-2.8612,1.2823-3.9967,2.4622-5.7591,2.077Z"/><path class="cls-1" d="M182.807,63.7273c-.0829-.5952,1.3814-1.2992,2.266-1.6048,2.6116-.902,4.9579,.0155,5.3813,.1887,.7372,.3017,2.9504,1.2077,2.9266,2.5491-.0149,.8401-.9001,1.42-1.0383,1.5105-.9643,.6316-2.1739,.427-2.9269,0-.9032-.5123-1.1035-.9253-1.9826-1.2272-.9397-.3227-1.7936-.8921-3.8367-.8103-.5524,.0221-.7337-.2061-.7894-.6059Z"/><path class="cls-1" d="M204.8046,55.2305c-.1124-.6438,1.6923-1.5916,3.21-1.9826,.5129-.1321,3.1053-.7443,5.3813,.6609,.5619,.3469,1.5429,.9529,1.5105,1.7937-.029,.7552-.8602,1.3052-1.4161,1.5106-.7851,.29-1.1602-.179-2.7378-.5665-1.5371-.3776-1.6182-.5943-3.5876-1.0385-1.4041-.3167-2.2948-.003-2.3602-.3776Z"/></g><g id="Schatten"><path class="cls-3" d="M163.1991,53.9604s-4.08,5.8366-4.8441,12.8824c-.2361,2.1766-.7266,7.2355,1.5108,12.8397,1.0696,2.6792,2.0978,5.3441,3.3908,7.6134,3.0356,5.3271,3.8804,8.4407,3.91,14.2896,.0597,11.7978-.9397,20.4311-2.2657,25.4276-3.0978,11.6732-7.9342,20.9251-12.1371,26.6486,1.6395-1.4957,3.3812-4.1702,5.5913-7.1372,3.6508-5.7684,5.9911-10.6573,7.5529-15.1056,.8832-2.5158,3.2599-8.5682,4.1373-19.1101,.7885-9.4751,.3508-14.1166-1.3679-20.6677-1.3344-5.0857-2.7358-6.1677-5.9165-12.7139-1.6479-3.3912-2.9412-7.6182-2.895-12.8396,.0591-6.6809,3.5388-12.053,3.3334-12.1272Z"/><path class="cls-3" d="M172.2019,95.7951c-.1024-1.4495-.0757-4.054,1.2586-6.7974,.8183-1.6826,1.803-2.7474,2.7694-3.7765,.96-1.0221,1.4568-2.2842,6.1681-5.1345,3.8671-2.3396,6.8077-3.6619,8.6856-4.1806,3.2561-.8994,6.1242-.6738,7.9304-.3776,.2868-.6478,.7572-1.5591,1.5108-2.5175,1.6496-2.098,4.869-4.4758,6.2937-5.161,5.951-2.8623,7.6677-2.9089,10.4482-3.2729,5.1533-.6746,9.4589,.5047,12.0843,1.5106-1.4167-.0766-3.3104-.12-5.5388,0-1.6284,.0878-4.3923,.2485-7.6786,1.0069-3.1136,.7185-5.7915,1.3364-8.5597,3.147-1.5331,1.0028-4.4933,3.2865-6.6718,7.8045-1.2299-.207-3.0201-.403-5.161-.2517-3.67,.2593-6.2183,1.3871-9.8186,3.0211-4.1281,1.8735-6.7016,3.075-9.0634,5.7905-.3075,.3535-1.4293,1.673-2.5175,3.6505-1.1786,2.1415-1.7976,4.1088-2.1398,5.5386Z"/><path class="cls-3" d="M182.272,129.9084c-.3585,.2186,3.7108,8.4187,9.8186,17.4972,6.1839,9.1919,10.5199,15.6366,18.3783,22.0289,11.8408,9.6315,23.8273,12.7572,28.7006,13.9726,.0009,.0003,12.7395,3.1771,27.4417,1.2588,5.0004-.6525,9.7747-1.9479,13.4689-5.6645,.8711-.8766,1.9999-2.0516,2.3957-2.6208-.6875-.4126-1.2426-1.2173-2.0269-1.9979-1.8246-1.8158-3.6058-3.9017-4.6484-5.5775-2.8864,1.0926-6.1291,3.5752-11.2035,4.5316-17.6724,3.3307-31.8587-.9418-35.8755-2.2658-16.1921-5.3373-25.9333-15.1066-30.7148-20.0147-10.3131-10.5863-15.3264-21.3967-15.7349-21.1477Z"/><path class="cls-3" d="M95.4272,183.1109c-1.1091-.4022-2.3581-.5395-5.1728-.2074-3.1669,.3736-3.3935,1.4164-6.7977,2.0142-1.7554,.3082-3.8556,.2475-8.056,.1259-3.4658-.1002-5.2746-.3059-5.9165,.7552-.3749,.6197-.2777,1.549,.1259,2.1399,.5926,.8675,1.8203,.9681,2.3916,1.0071,6.1027,.4159,9.154,.6239,11.0775,.2517,4.7979-.9285,12.4191-5.4469,14.0988-5.2871,.3661,.0348-1.0741-.5542-1.7508-.7995Z"/><path class="cls-3" d="M49.9565,199.2298c-.1099,.4739-.296,3.1451,1.1493,6.7097,1.0187,2.5124,2.2114,5.1603,5.7105,7.9985,2.3883,1.9372,6.121,3.9354,9.3744,5.3086,2.8048,1.1839,4.822,1.5194,6.3699,1.7458,2.9393,.4299,7.9507,.8487,13.414-.4509,.886-1.4131,1.8088-2.8405,2.7691-4.2799,.689-1.0325,4.729-7.0884,7.427-10.3222,3.9351-4.7166,8.0371-7.0531,15.9867-11.5809,5.4673-3.114,4.6702-2.0836,14.3503-7.175,2.7427-1.4426,7.9054-4.4192,14.6271-8.5865,4.4872-2.782,6.9176-4.317,8.9567-6.1488,2.5339-2.2763,6.3753-7.0628,8.3525-9.8452,.2198-.3093,1.1499-1.6615,2.4289-2.9871,.6273-.6501,1.1453-.9909,1.1327-1.0069-.0272-.0349-2.5485,1.8489-4.4858,4.6338-1.1373,1.635-1.6889,2.09-2.7723,3.6253-.4541,.6434-1.7182,2.3323-5.4379,5.3669-3.0949,2.525-6.2471,4.6395-12.0489,7.9615-5.1894,2.9713-9.5919,5.4635-11.5868,6.5043-9.3849,4.8964-10.4009,5.0657-15.923,8.2458-5.5356,3.188-8.2377,4.9867-9.9874,6.1844-3.5789,2.4497-3.4602,2.2956-5.2291,3.4239-5.2571,3.3528-10.468,3.903-15.2315,4.4058-6.1403,.6481-10.353-.0432-16.9938-1.1329-6.0422-.9914-8.9088-2.0962-10.4479-4.5317-1.0062-1.5922-1.8456-4.3205-1.9045-4.0662Z"/><path class="cls-3" d="M.1521,221.1989c-.0263,.6421,.4684,5.121,3.1196,8.0281,1.2263,1.3447,3.2232,2.6983,6.6762,3.6194,2.3033,.6145,4.931,.3389,6.4924-.2843,2.5932-1.0351,2.9443-2.5799,2.9443-2.5799-1.0961,.6843-1.3757-.9316-2.2174-2.4021-.7195-1.2571-1.4702-1.8833-1.8109-4.5212-.4067-3.1463,1.4227-5.6951,1.7623-6.1681,.1833-.2551,3.0313-4.09,7.6786-4.0282,3.4294,.0456,5.7464,2.1857,6.9233,3.2729,1.826,1.6869,4.0044,4.0101,5.7906,12.5879,1.6776,8.0561,1.2827,8.189,2.6435,11.9586,.5401,1.4966,3.1592,8.7517,9.5668,13.2173,8.5523,5.9601,19.2711,4.1975,24.9239,2.3918,8.4454-2.6978,15.117-5.9679,19.0079-8.4339,2.3021-1.4591,3.9712-2.7056,16.1126-10.8256,1.9106-1.2778,5.4989-3.6277,10.6995-4.6576,2.0084-.3977,4.0948,.0628,5.2845,.0515-.0563-1.0144-.0475-2.1339,.2542-3.1985,.1213-.4287,1.3048-4.5174,3.5246-8.0562,.7472-1.1911,2.8081-4.2272,8.6856-8.4339,5.6248-4.0259,6.9133-3.5183,14.3503-7.9304,4.6938-2.7846,8.3833-5.0073,12.2103-8.9375,4.7792-4.9082,7.3946-10.0368,7.1752-10.1962-.1991-.1447-2.5678,4.7224-7.6061,9.5461-1.1158,1.0682-4.7546,4.747-11.0892,8.3406-4.9285,2.796-5.592,3.0803-12.3688,6.1607-4.2325,1.9239-6.9306,3.5169-11.1055,6.793-4.324,3.3933-5.2175,4.9064-9.4409,7.5528-3.1721,1.9876-4.0779,2.0174-7.427,3.7763-7.8174,4.1057-8.6877,5.0142-16.9937,11.3292-2.8023,2.1306-5.3756,4.118-10.6999,6.7974-7.3619,3.7049-11.0428,5.5574-14.0985,6.1681-2.2975,.4592-10.5558,2.1098-18.0006-2.3916-7.6-4.5952-10.5126-13.0128-11.2032-16.3643-1.1065-5.37-1.0075-5.9135-2.7694-11.455-1.2899-4.057-3.4784-8.2198-8.0563-10.5739-.7068-.3634-6.4994-3.2189-12.4621-.2518-3.1015,1.5435-6.3086,4.6919-6.9233,8.4339-.9233,5.6227,.2516,8.8107,.2518,8.8116,.1618,.4389,.4675,1.1818,.1256,1.6365-.7266,.9661-3.9101,.0116-6.1681-1.2589-3.9242-2.2081-5.7479-7.895-5.763-7.5246Z"/><path class="cls-3" d="M126.4563,233.4193c-.2027-.2794,2.4513,4.8215,7.2097,8.6684,6.2721,5.0706,13.7949,5.0648,18.3952,5.5179,7.0372,.693,10.0554,.4531,15.0313,1.8748,3.2544,.9298,6.0309,2.3427,8.2735,4.4272,2.5787,2.3969,6.986,7.8468,6.78,13.8387-.145,4.217-3.6047,7.412-3.1469,7.4269,.5568,.0181,2.4909-1.5587,3.7765-3.9022,2.9733-5.4205,.8097-13.3367-3.0212-18.3783-4.8116-6.3319-10.482-8.1511-17.7487-9.3151-1.9661-.3149-7.5607-.8951-15.7352-1.5106-6.0327-.4543-8.0982-.5107-10.9513-1.7623-5.6796-2.4914-8.7346-6.7083-8.8629-6.8852Z"/><path class="cls-3" d="M147.722,291.508c-.0711,.1662,4.7325,3.5708,11.079,5.4563,3.7171,1.1045,10.6505,2.712,19.4431,1.3705,12.7876-1.9512,20.9332-9.6831,23.7912-12.7138,4.9353-5.2333,7.873-10.648,9.1893-14.0988-1.7818-1.5364-4.4801-3.7745-6.7977-6.7971-5.4352-7.0891-7.4058-13.9954-8.0563-16.6162-2.4639-9.9276-.8525-18.2686,.2518-22.4065-1.2618-.2415-3.0313-.7194-4.9092-1.7623-6.0341-3.3512-8.884-10.2894-9.0634-9.4409-.1106,.5233,.4529,2.6782,1.1949,4.0677,1.1138,2.0857,1.7299,2.3847,4.5954,5.8767,1.714,2.0888,2.8012,2.934,3.2731,4.6576,.2966,1.0829,.2665,1.9457,.2516,2.5175-.0754,2.8954-.1347,5.8152,.2518,8.6856,.7379,5.4796,1.8059,7.4557,4.028,17.4972,1.4726,6.6553,2.2092,9.983,1.8882,12.4621-1.1086,8.5663-7.8739,14.1401-10.5739,16.3643-6.5206,5.3721-13.2873,6.7643-17.1194,7.5528-2.7527,.5664-7.0481,1.4115-12.4621,.6293-6.0344-.8717-10.1889-3.4575-10.2555-3.3022Z"/><path class="cls-3" d="M211.4025,271.6485c.3051,.7212,4.4586,3.4211,9.4424,5.4326,2.0764,.838,5.4081,2.5436,11.4116,3.762,3.4825,.7068,10.3019,1.9072,18.5952,1.4762,3.8732-.2013,16.4635,.6684,32.5537-4.3768,9.993-3.1335,14.0942-5.7974,19.1339-9.9445,7.2185-5.9401,8.6067-16.2902,8.296-19.654-.0584-.6329-.4764-3.2502-.6135-3.5362-.0829-.173-.1873,5.39-1.5145,9.4693-2.1759,6.6884-6.2177,10.174-11.7069,13.8468-2.9636,1.9827-12.8812,6.8523-27.3158,9.441-9.3627,1.6791-14.3495,1.8095-27.064,1.1329-7.1995-.3831-14.5594-2.0545-22.4066-4.4058-4.7342-1.4185-8.9755-3.031-8.8116-2.6435Z"/><path class="cls-3" d="M222.7282,223.5107c.2566-1.6746,.3153-1.118,.4547-2.4657,1.0957-.0829,2.6569-.185,4.5317-.2518,4.8699-.1735,11.0669-.3943,17.4972,.7554,8.6159,1.5404,14.7103,5.0159,16.9938,6.4198,4.6542,2.8615,9.3689,5.8523,10.322,10.9515,.6247,3.3428-.4873,6.9468-.8812,6.9235-.2065-.0122,.4368-2.6057-.5037-5.2869-.8542-2.4352-2.7289-4.1357-6.2937-6.294-7.5208-4.5532-14.3948-6.1978-15.3574-6.4199-5.3684-1.239-10.0313-1.2249-12.8782-1.3935-3.328-.197-6.8847-.6205-9.7149-1.0426-1.5833-.2361-3.3647,0-4.6386,1.5051,.0303-1.0312,.3159-2.4068,.4682-3.4007Z"/><path class="cls-3" d="M277.8145,206.6947c.2335-.2976,4.9404,3.0394,10.9513,7.3011,5.4438,3.8595,8.2164,5.8322,10.6998,7.9304,5.9991,5.0686,5.0225,5.5078,8.4341,7.6786,1.9984,1.2715,5.9478,2.736,13.8466,5.6647,4.2199,1.5647,6.0313,2.1665,7.8045,4.1539,.6279,.7039,2.9745,3.415,2.8953,7.3011-.1202,5.9018-5.7258,9.139-6.0422,9.3149,.8175-1.0197,1.8948-2.6155,2.6435-4.7834,.8178-2.3682,1.986-5.1035,.7552-7.175-.5387-.9067-1.3361-1.3712-2.3916-1.8882-4.353-2.1323-8.4025-2.8592-10.0705-3.147-4.4287-.764-7.8426-1.3194-9.8186-1.6364-1.2701-2.232-2.7671-4.6053-4.5317-7.0492-2.2066-3.0561-4.98-6.6547-9.0631-10.4481-3.5737-3.3203-4.1605-3.4575-9.6396-7.68-2.9412-2.267-6.6881-5.2631-6.473-5.5373Z"/><path class="cls-3" d="M307.5223,330.8115c-.1264,.1934-1.6562,1.0636-3.399,1.322-2.8434,.4216-5.9805-1.1463-7.7417-3.4932-1.3378-1.7825-2.4369-4.9747-2.5491-8.0248-.1707-4.641,.4242-7.7827,2.266-13.5949,3.2429-10.2353,10.1178-16.8116,14.3503-20.7701,2.8726-2.6866,11.0124-9.6249,23.4679-14.2481,5.6853-2.1102,11.1212-3.7076,19.2994-8.2214,3.9032-2.1544,6.7954-4.1862,8.969-7.5528,3.0485-4.7216,3.5163-9.9747,3.6341-9.6446,.1997,.5598,.0457,7.7186-1.1228,10.2066-.7283,1.5507-1.73,4.6545-5.107,8.007-2.1109,2.0956-4.9241,3.6494-8.2036,5.4458-1.2027,.6587-5.2596,2.5597-6.7389,3.1879-7.3769,3.1326-13.076,3.6185-17.771,5.9276-6.9583,3.4223-11.6165,7.5896-14.2557,10.1019-3.2845,3.1265-7.1318,6.8569-10.1017,13.0284-2.2313,4.6371-2.9449,8.5279-3.4934,11.518-.1334,.7274-.8551,4.8261-.2831,9.7241,.1999,1.7111,.5278,3.2647,1.6992,4.6261,.3953,.4592,1.4869,1.5945,3.21,2.0771,1.9548,.5476,4.0268,.1393,3.8711,.3773Z"/><path class="cls-3" d="M280.458,185.0436c-.224,.3006,3.8163,3.3452,7.0492,5.4127,5.9489,3.8046,10.1892,5.901,15.3571,8.0563,2.5695,1.0716,5.8253,2.8543,14.6022,5.9164,2.7287,.952,4.9921,1.7323,6.5456,2.2657,1.0647,.0029,2.5594-.0846,4.2801-.5034,6.2883-1.5301,9.9546-6.1096,11.0773-7.5528,3.9689-5.1022,4.6258-10.6248,5.4129-17.2455,.4945-4.1592,.0095-3.8804,.5034-9.3151,.2886-3.1743,.8645-9.1998,2.8953-16.2384,1.7655-6.1189,3.0212-10.9515,6.9233-15.9867,5.6581-7.3009,12.5453-9.9817,12.3362-10.322-.2045-.3329-5.5388,1.1329-12.3362,8.1821-3.037,3.1494-4.5016,6.3339-5.5388,9.1892-1.906,5.2468-2.3715,7.4892-4.4058,15.4832-1.8664,7.3342-2.7998,11.0014-4.2799,14.4761-1.98,4.648-4.6243,10.8561-10.9513,15.8608-2.1079,1.6675-6.4607,5.0258-12.8399,5.9164-6.1626,.8604-10.98-1.034-16.9935-3.3988-5.9458-2.3381-12.5031-6.157-14.2244-7.175-2.9085-1.72-5.233-3.2626-5.4129-3.0211Z"/><path class="cls-3" d="M389.3539,146.5978c-.314,.4642-.4663,1.3735-.3191,2.7241,.1315,1.2062,2.2118,2.7249,2.2118,2.7249,1.4994,1.1818,3.1146,1.8438,5.9,2.5591,4.1313,1.0609,7.5569-1.1206,8.1836-1.5672,4.945-3.5235,7.5868-10.8621,8.0948-15.6786,.6325-5.9978-1.1255-10.7205-1.359-10.7105-.1463,.0063-.0364,3.7186-.7025,7.1284-.6474,3.314-1.5383,5.5464-2.7723,8.1037-.6784,1.4061-2.1671,3.2695-5.5268,5.2092-.5705,.3293-3.8364,2.153-7.9304,1.605-3.4239-.4584-5.4751-2.5491-5.7802-2.0981Z"/></g><g id="Highlights"><path class="cls-6" d="M81.317,180.26c-.4434,.117-1.1254,.4443-2.0142,.5035-3.7763,.2518-7.7623,.9748-10.4479,2.1399-1.1468,.4975-5.2663,2.2845-5.7903,5.7905-.1973,1.3196-.0468,3.3343,1.2586,4.5317,.8642,.7928,1.9155,.9445,2.3916,1.0071,7.2297,.9487,10.9508,.2518,10.9516,.2517,8.3939-1.572,12.5909-2.3581,15.7349-3.3987,6.146-2.0342,10.415-4.2596,16.4901-7.4269,4.7049-2.4529,6.0106-3.6918,11.9587-6.7975,4.6556-2.4309,5.9748-2.8508,9.0634-4.4058,12.0861-6.0846,19.1531-13.3802,19.511-12.9655,.2518,.2917-3.1916,3.9618-7.4267,7.5526-3.2189,2.7294-5.4909,4.2223-15.3574,10.5739-6.9471,4.4722-10.464,6.7352-12.5877,8.0563-7.3536,4.5741-11.0305,6.8612-13.9728,8.308-3.7968,1.867-9.6439,4.6933-17.7487,6.294-9.4004,1.8565-14.9966,.7129-16.4904,.3776-3.9067-.8769-8.4484-1.8963-9.8186-5.4129-1.6978-4.3573,2.7203-9.3486,3.1471-9.8185,2.367-2.6059,5.0959-3.3961,10.322-4.9093,3.4156-.989,5.7195-1.1204,7.8045-.8812,1.2681,.1454,2.3044,.4107,3.0212,.6293Z"/><path class="cls-6" d="M77.5405,233.0036c3.0212-1.6994,4.4152-2.78,8.4969-5.2869,5.1375-3.1555,5.3368-6.184,10.9516-13.0286,.7564-.9222,5.5672-6.7225,12.0843-11.518,6.2409-4.5922,7.6459-3.5532,21.3365-10.385,8.5239-4.2535,12.8774-6.4566,17.3713-10.1962,6.0304-5.0183,9.9124-10.3137,10.5739-9.8186,.584,.437-2.0506,4.8583-2.6435,5.8534-2.0067,3.3674-4.6966,7.7963-10.1961,12.8397-6.2731,5.7529-12.2346,8.6673-20.77,12.8397-9.1558,4.4758-10.9579,4.2264-15.4833,7.9304-4.0599,3.3231-7.7609,7.7404-9.8186,10.1962-4.4898,5.3586-5.1117,7.1683-8.6856,9.6297-1.4927,1.0282-6.8063,4.6879-11.1404,2.8322-.4733-.2026-2.9779-1.3813-2.077-1.8881Z"/><path class="cls-6" d="M174.5935,194.6733c-1.5343-.9315-5.8236,6.0159-15.2943,12.6508-.9537,.6682-2.461,1.6413-5.4757,3.5876-7.9602,5.1392-9.9494,6.0959-10.7629,8.6856-.7185,2.2879-.3121,5.1906,1.3217,6.7975,1.4603,1.4362,3.5438,1.4867,4.343,1.5105,1.1909,.0354,13.0375,.3875,19.6373,2.0771,5.1515,1.3189,14.151,5.2561,16.8048,10.7626,.2736,.5681,1.0541,2.3442,1.8882,2.2658,.9959-.0934,1.6754-2.7926,1.6992-4.5317,.0404-2.9644-1.9066-5.5894-7.3639-10.1962-3.2289-2.7256-7.7397-6.1724-13.5948-9.6297-.2771-1.1661-.4658-2.5725-.3778-4.1539,.1652-2.9684,1.7583-4.1306,5.4757-10.9515,.6531-1.1987,1.5538-2.8966,1.8882-5.2869,.2358-1.6857,.4477-3.2012-.1887-3.5876Z"/><path class="cls-6" d="M196.4021,227.339c.0786-1.5135,2.1779-10.3233,7.2695-18.1266,6.7925-10.4105,14.3188-14.6459,16.2386-15.6721,1.351-.7221,9.0631-4.7204,13.0283-2.6435,.662,.3468,1.3719,1.8773,.9443,2.8323,0,0-2.0027-.6015-3.5877,0q-2.2657,.8598-6.0422,3.0211c-2.0101,1.1505-5.0882,3.0283-10.5739,8.4969-3.8163,3.8043-7.4181,7.3949-11.7069,13.0284-3.7412,4.9145-5.5924,9.4915-5.57,9.0634Z"/><path class="cls-6" d="M261.4501,202.6037c-.4182,.1928,.3261,3.3647,1.6995,6.231,2.7223,5.681,6.5066,7.2196,11.5178,11.7067,4.1709,3.7346,9.8281,8.8004,11.5181,16.4273,.2817,1.2707,1.9195,8.6624-2.266,14.5391-1.6699,2.3447-3.6534,3.4832-7.5526,5.6645-5.2055,2.9122-10.5013,5.8749-17.3713,6.6087-9.8734,1.0545-17.4493-3.0875-17.749-2.2658-.2039,.5588,3.2361,2.6518,7.1752,4.1541,12.9678,4.9457,25.3929,1.2193,29.2669,0,8.7502-2.754,15.44-4.8595,18.693-11.518,4.6504-9.519-1.7982-20.3837-2.2657-21.1477-1.5793-2.5806-3.7179-4.525-7.9304-8.308-4.6329-4.1608-10.3745-8.3629-13.4061-10.5739-3.1127-2.2702-4.7388-3.3442-6.7977-5.6647-2.8032-3.1596-4.1149-6.0455-4.5317-5.8533Z"/><path class="cls-6" d="M300.3468,204.6807c.0668-.116,.6244-.1833,6.4199,2.6435,8.1547,3.9775,16.6203,7.4963,21.903,10.1962,7.4419,3.8036,13.9717,7.1749,13.9726,7.1752,.7647,.2923,5.159,2.954,5.9819,4.6576,2.4014,4.9721,1.7397,6.9673,1.7597,8.5597,.1285,10.1851-7.98,16.8128-8.6856,17.3713-3.1282,2.476-3.7593,1.5657-8.6856,4.5317-8.9194,5.37-12.9394,12.0194-13.5951,11.518-.4793-.3666,1.3671-4.1542,4.1539-7.7417,4.2431-5.462,6.7475-5.4151,11.1404-10.9515,2.2055-2.7796,3.9365-5.0172,4.5317-8.4969,.7538-4.4082-.8-7.9784-1.3217-9.0632-1.8509-3.8487-4.6932-5.4863-9.0634-8.4969-4.8415-3.3352-9.3003-7.1941-13.9726-10.7626-6.6173-5.0542-5.885-4.5106-6.4196-4.9093-5.5393-4.13-8.2998-5.9175-8.1194-6.231Z"/><path class="cls-6" d="M332.6349,153.8883c-.6026-.2388,.6465-8.3315,5.6647-16.0495,5.1312-7.8921,11.9188-11.8788,14.9165-13.5949,7.7176-4.418,15.0212-6.5861,22.2807-7.6245,.0009-.0001,6.6399-1.2193,19.2595,.8097,1.9212,.3089,7.3536,2.1481,9.8186,5.1153,1.2196,1.468,2.0956,3.4536,1.6995,3.7765-.551,.449-2.6271-3.523-6.4199-4.9093-5.9051-2.1584-11.0646-2.6572-20.0147-1.6994-5.2439,.5612-10.0074,1.071-15.8608,3.5876-5.2405,2.2531-8.6862,4.9673-13.4064,8.6856-3.5651,2.8084-6.7088,5.2848-10.0074,9.2521-5.7456,6.9104-7.4018,12.8604-7.9304,12.6508Z"/><path class="cls-6" d="M243.5123,68.7311c-.1962,.8632,3.4354,2.1617,9.4412,4.9092,7.8122,3.5738,12.4698,5.7046,16.427,8.6858,7.1037,5.3518,10.3656,12.2507,11.3294,14.3502,4.2038,9.1575,3.5281,17.41,3.0209,23.6025-.3703,4.5205-.8946,10.2462-4.1539,16.8048-1.4588,2.9355-3.9463,7.9409-9.2521,11.8956-3.9813,2.9674-7.5589,3.8594-7.3639,4.5317,.2401,.8284,5.9297,.3623,11.1404-1.3217,1.4643-.4731,8.6816-2.914,15.8608-10.1962,3.0628-3.1066,11.2258-11.6326,13.0283-25.4905,.4469-3.437,1.785-15.0336-5.0979-26.2458-6.9213-11.2746-17.9441-15.301-25.6794-18.1266-7.524-2.7483-13.7394-3.2523-20.2038-3.7765-2.5818-.2094-8.2588-.6696-8.4969,.3778Z"/><path class="cls-6" d="M164.3836,52.3108c.3849-.6725,2.6858-3.3709,5.4102-4.6638,4.4827-2.1274,8.9524-1.3963,12.2266-1.0663,1.7748,.1789,2.3926,.3492,3.3363,.4871,.627-1.0644,2.6864-3.3031,4.2531-4.7356,3.2576-2.9782,5.8061-3.5099,7.4805-3.8294,.6588-.1257,6.7924-.101,11.4904,1.9054,6.186,2.642,9.3324,8.1866,9.3061,8.9039-.0084,.2287-1.6984-2.0917-5.2053-4.8403-3.3166-2.5995-5.431-3.0058-7.2162-3.686-1.0865-.4139-4.7072-.816-8.5646,.0844-2.7187,.6346-4.3541,2.3652-5.9655,3.8808-1.4898,1.4012-3.5912,3.4052-4.2707,4.4124-1.2239-.0251-1.7712-.1683-3.1292-.2405-4.3512-.2314-4.7438-.2077-6.7515-.0201-2.4144,.2256-3.8198,.4757-7.4772,1.9848-2.3135,.9546-5.1653,1.8465-4.9229,1.4232Z"/></g><g id="Mund"><path class="cls-7" d="M275.8007,168.8051c-.9275,.2467-7.1944,3.4913-10.5741,4.2799-4.2784,.998-8.4952,1.5876-16.5762,1.3536-4.6063-.1334-12.1813-.5359-21.5654-3.8713-9.6984-3.447-15.7463-8.2005-17.5312-9.3234-3.3765-2.1242-7.7837-6.6823-15.9527-15.8524-6.2613-7.0286-6.7944-8.2726-11.2032-15.6091-.0005-.0008-1.7179-3.1104-1.7401-3.4802-.0087-.1449,.4028-.4028,.7819-.5924,.8836-.4418,1.6546,.0189,2.0022,.1303,.3445,.1104,.3217,.044,.2104-.1523-.2185-.3853-.8667-1.1406-2.3875-1.1924-.9491-.0324-1.7187,.6395-2.1398,1.0071-.2731,.2384-.9595,.8535-1.2589,1.8881-.3227,1.1151-.119,2.4511,.2518,2.5177,0,0,.1617-.797,.4073-1.4617,.211-.5712,.676-.9906,.8293-1.007,.2518-.027,.8688,1.3467,1.0291,1.5876,3.8235,5.7414,5.5548,8.9972,6.7428,10.6153,2.0155,2.7452,2.6301,3.5187,6.5043,7.8845,4.5912,5.1738,9.9874,11.7705,17.9845,17.1018,15.5431,10.3621,29.8985,10.6404,32.6279,10.876,11.9422,1.0307,19.7881-.7128,23.1736-1.706,3.548-1.041,9.0815-3.9791,9.0815-3.9791l-.6976-1.0146Z"/></g></svg>