<svg width="5639" height="3966" xmlns="http://www.w3.org/2000/svg" xmlns:xlink="http://www.w3.org/1999/xlink" xml:space="preserve" overflow="hidden"><defs><filter id="fx0" x="-10%" y="-10%" width="120%" height="120%" filterUnits="userSpaceOnUse" primitiveUnits="userSpaceOnUse"><feComponentTransfer color-interpolation-filters="sRGB"><feFuncR type="discrete" tableValues="0 0"/><feFuncG type="discrete" tableValues="0 0"/><feFuncB type="discrete" tableValues="0 0"/><feFuncA type="linear" slope="0.231373" intercept="0"/></feComponentTransfer><feGaussianBlur stdDeviation="6.11111 6.11111"/></filter><clipPath id="clip1"><rect x="282" y="628" width="5639" height="3966"/></clipPath><clipPath id="clip2"><path d="M3179.5 2071.5C2865.25 2071.5 2610.5 2326.25 2610.5 2640.5 2610.5 2954.75 2865.25 3209.5 3179.5 3209.5 3493.75 3209.5 3748.5 2954.75 3748.5 2640.5 3748.5 2326.25 3493.75 2071.5 3179.5 2071.5ZM282 628 5921 628 5921 4594 282 4594Z" fill-rule="evenodd" clip-rule="evenodd"/></clipPath><clipPath id="clip3"><rect x="-3" y="-3" width="1201" height="1201"/></clipPath><clipPath id="clip4"><rect x="0" y="0" width="1194" height="1194"/></clipPath></defs><g clip-path="url(#clip1)" transform="translate(-282 -628)"><path d="M3845.99 2339.41C3792.21 2991.65 3220.1 3476.79 2568.13 3422.99 1916.16 3369.19 1431.23 2796.83 1485.01 2144.59 1538.78 1492.35 2110.9 1007.21 2762.87 1061.01 3008.39 1081.27 3241.48 1177.61 3429.71 1336.62L2665.5 2242Z" fill="#FFFFFF" fill-rule="evenodd"/><path d="M3845.99 2339.41C3792.21 2991.65 3220.1 3476.79 2568.13 3422.99 1916.16 3369.19 1431.23 2796.83 1485.01 2144.59 1538.78 1492.35 2110.9 1007.21 2762.87 1061.01 3008.39 1081.27 3241.48 1177.61 3429.71 1336.62" stroke="#4472C4" stroke-width="2.29167" stroke-miterlimit="8" fill="none" fill-rule="evenodd"/><path d="M3846.36 2338.64C3550.99 2093.35 3395.56 1718.09 3430.96 1335.68" stroke="#4472C4" stroke-width="2.29167" stroke-miterlimit="8" fill="none" fill-rule="evenodd"/><path d="M933 3319C933 3252.17 987.173 3198 1054 3198 1120.83 3198 1175 3252.17 1175 3319 1175 3385.83 1120.83 3440 1054 3440 987.173 3440 933 3385.83 933 3319Z" fill="#4472C4" fill-rule="evenodd"/><text fill="#FFFFFF" font-family="Calibri,Calibri_MSFontService,sans-serif" font-weight="400" font-size="64" transform="matrix(1 0 0 1 987.24 3302)">open<tspan font-size="64" x="-2.29163" y="77">sdmx</tspan><tspan fill="#000000" font-family="Arial,Arial_MSFontService,sans-serif" font-size="64" x="211.61" y="40">rsdmx</tspan></text><path d="M1343 3538C1343 3471.17 1397.17 3417 1464 3417 1530.83 3417 1585 3471.17 1585 3538 1585 3604.83 1530.83 3659 1464 3659 1397.17 3659 1343 3604.83 1343 3538Z" fill="#4472C4" fill-rule="evenodd"/><text fill="#FFFFFF" font-family="Calibri,Calibri_MSFontService,sans-serif" font-weight="400" font-size="64" transform="matrix(1 0 0 1 1415.04 3560)">CBS<tspan fill="#000000" font-family="Arial,Arial_MSFontService,sans-serif" font-size="64" x="194.136" y="1">validate</tspan></text><path d="M717.5 3535C717.5 3212.19 978.966 2950.5 1301.5 2950.5 1624.03 2950.5 1885.5 3212.19 1885.5 3535 1885.5 3857.81 1624.03 4119.5 1301.5 4119.5 978.966 4119.5 717.5 3857.81 717.5 3535Z" stroke="#4472C4" stroke-width="4.58333" stroke-miterlimit="8" fill="none" fill-rule="evenodd"/><text fill="#3B3838" font-family="Arial,Arial_MSFontService,sans-serif" font-weight="400" font-size="92" transform="matrix(1 0 0 1 1302.2 3071)">R</text><path d="M946 3788C946 3721.17 1000.17 3667 1067 3667 1133.83 3667 1188 3721.17 1188 3788 1188 3854.83 1133.83 3909 1067 3909 1000.17 3909 946 3854.83 946 3788Z" fill="#4472C4" fill-rule="evenodd"/><text fill="#FFFFFF" font-family="Calibri,Calibri_MSFontService,sans-serif" font-weight="400" font-size="55" transform="matrix(1 0 0 1 1000.1 3773)">Banca<tspan font-size="55" x="-8.86871" y="66">d’Italia</tspan><tspan fill="#000000" font-family="Arial,Arial_MSFontService,sans-serif" font-size="64" x="212.194" y="38">rjsdmx</tspan></text><path d="M1961.5 4066C1961.5 3775.77 2197 3540.5 2487.5 3540.5 2778 3540.5 3013.5 3775.77 3013.5 4066 3013.5 4356.23 2778 4591.5 2487.5 4591.5 2197 4591.5 1961.5 4356.23 1961.5 4066Z" stroke="#4472C4" stroke-width="4.58333" stroke-miterlimit="8" fill="none" fill-rule="evenodd"/><path d="M2354 3932C2354 3865.17 2408.17 3811 2475 3811 2541.83 3811 2596 3865.17 2596 3932 2596 3998.83 2541.83 4053 2475 4053 2408.17 4053 2354 3998.83 2354 3932Z" fill="#4472C4" fill-rule="evenodd"/><text fill="#FFFFFF" font-family="Calibri,Calibri_MSFontService,sans-serif" font-weight="400" font-size="64" transform="matrix(1 0 0 1 2390.09 3953)">Dr Leo<tspan fill="#000000" font-family="Arial,Arial_MSFontService,sans-serif" font-size="64" x="229.37" y="2">pandaSDMX</tspan></text><path d="M2238 4268C2238 4201.17 2292.17 4147 2359 4147 2425.83 4147 2480 4201.17 2480 4268 2480 4334.83 2425.83 4389 2359 4389 2292.17 4389 2238 4334.83 2238 4268Z" fill="#4472C4" fill-rule="evenodd"/><text fill="#FFFFFF" font-family="Calibri,Calibri_MSFontService,sans-serif" font-weight="400" font-size="64" transform="matrix(1 0 0 1 2274.47 4289)">Dr Leo<tspan fill="#000000" font-family="Arial,Arial_MSFontService,sans-serif" font-size="64" x="229.37" y="2">Intake </tspan><tspan fill="#000000" font-family="Arial,Arial_MSFontService,sans-serif" font-size="64" x="421.297" y="2">sdmx</tspan><tspan fill="#262626" font-family="Arial,Arial_MSFontService,sans-serif" font-size="92" x="106.093" y="-614">Python</tspan><tspan fill="#262626" font-family="Arial,Arial_MSFontService,sans-serif" font-size="92" x="2056.9" y="-3501">Third</tspan><tspan fill="#262626" font-family="Arial,Arial_MSFontService,sans-serif" font-size="92" x="2266.01" y="-3501">-</tspan><tspan fill="#262626" font-family="Arial,Arial_MSFontService,sans-serif" font-size="92" x="2296.38" y="-3501">party</tspan><tspan fill="#262626" font-family="Arial,Arial_MSFontService,sans-serif" font-size="92" x="2105.3" y="-3391">software</tspan><tspan fill="#262626" font-family="Arial,Arial_MSFontService,sans-serif" font-size="92" x="-1051.36" y="-3058">SDMX</tspan><tspan fill="#262626" font-family="Arial,Arial_MSFontService,sans-serif" font-size="92" x="-1249.59" y="-2948">tools community</tspan></text><path d="M3013.5 2083C3013.5 1280.81 3663.81 630.5 4466 630.5 5268.19 630.5 5918.5 1280.81 5918.5 2083 5918.5 2885.19 5268.19 3535.5 4466 3535.5 3663.81 3535.5 3013.5 2885.19 3013.5 2083Z" stroke="#E7E6E6" stroke-width="4.58333" stroke-miterlimit="8" fill="none" fill-rule="evenodd"/><path d="M4036.5 2804.5C4036.5 2485.83 4294.83 2227.5 4613.5 2227.5 4932.17 2227.5 5190.5 2485.83 5190.5 2804.5 5190.5 3123.17 4932.17 3381.5 4613.5 3381.5 4294.83 3381.5 4036.5 3123.17 4036.5 2804.5Z" stroke="#767171" stroke-width="4.58333" stroke-miterlimit="8" fill="none" fill-rule="evenodd"/><path d="M4188 2622C4188 2555.17 4242.17 2501 4309 2501 4375.83 2501 4430 2555.17 4430 2622 4430 2688.83 4375.83 2743 4309 2743 4242.17 2743 4188 2688.83 4188 2622Z" fill="#767171" fill-rule="evenodd"/><text font-family="Arial,Arial_MSFontService,sans-serif" font-weight="400" font-size="64" transform="matrix(1 0 0 1 4453.53 2645)">MySQL</text><path d="M4598 2801C4598 2734.17 4652.17 2680 4719 2680 4785.83 2680 4840 2734.17 4840 2801 4840 2867.83 4785.83 2922 4719 2922 4652.17 2922 4598 2867.83 4598 2801Z" fill="#767171" fill-rule="evenodd"/><text font-family="Arial,Arial_MSFontService,sans-serif" font-weight="400" font-size="64" transform="matrix(1 0 0 1 4863.88 2824)">MariaDB<tspan fill="#262626" font-size="92" x="-416.286" y="-471">Metadata </tspan><tspan fill="#262626" font-size="92" x="-452.38" y="-361">Persistence</tspan></text><path d="M4195 2974C4195 2907.17 4249.17 2853 4316 2853 4382.83 2853 4437 2907.17 4437 2974 4437 3040.83 4382.83 3095 4316 3095 4249.17 3095 4195 3040.83 4195 2974Z" fill="#767171" fill-rule="evenodd"/><text font-family="Arial,Arial_MSFontService,sans-serif" font-weight="400" font-size="64" transform="matrix(1 0 0 1 4461.29 2997)">SQL Server</text><path d="M4502 3192C4502 3125.17 4556.17 3071 4623 3071 4689.83 3071 4744 3125.17 4744 3192 4744 3258.83 4689.83 3313 4623 3313 4556.17 3313 4502 3258.83 4502 3192Z" fill="#767171" fill-rule="evenodd"/><text font-family="Arial,Arial_MSFontService,sans-serif" font-weight="400" font-size="64" transform="matrix(1 0 0 1 4767.62 3215)">Oracle</text><path d="M3683.5 1529C3683.5 1266.94 3896.17 1054.5 4158.5 1054.5 4420.84 1054.5 4633.5 1266.94 4633.5 1529 4633.5 1791.06 4420.84 2003.5 4158.5 2003.5 3896.17 2003.5 3683.5 1791.06 3683.5 1529Z" stroke="#767171" stroke-width="4.58333" stroke-miterlimit="8" fill="none" fill-rule="evenodd"/><path d="M3835 1449C3835 1382.17 3889.17 1328 3956 1328 4022.83 1328 4077 1382.17 4077 1449 4077 1515.83 4022.83 1570 3956 1570 3889.17 1570 3835 1515.83 3835 1449Z" fill="#767171" fill-rule="evenodd"/><text font-family="Arial,Arial_MSFontService,sans-serif" font-weight="400" font-size="64" transform="matrix(1 0 0 1 4100.77 1472)">Active Directory</text><path d="M3991 1722C3991 1655.17 4045.17 1601 4112 1601 4178.83 1601 4233 1655.17 4233 1722 4233 1788.83 4178.83 1843 4112 1843 4045.17 1843 3991 1788.83 3991 1722Z" fill="#767171" fill-rule="evenodd"/><text font-family="Arial,Arial_MSFontService,sans-serif" font-weight="400" font-size="64" transform="matrix(1 0 0 1 4256.54 1745)">OpenLDAP<tspan fill="#262626" font-size="92" x="-388.34" y="-496">Authentication</tspan></text><path d="M4756.5 1734.5C4756.5 1472.16 4968.94 1259.5 5231 1259.5 5493.06 1259.5 5705.5 1472.16 5705.5 1734.5 5705.5 1996.84 5493.06 2209.5 5231 2209.5 4968.94 2209.5 4756.5 1996.84 4756.5 1734.5Z" stroke="#767171" stroke-width="4.58333" stroke-miterlimit="8" fill="none" fill-rule="evenodd"/><path d="M5000 1832C5000 1765.17 5054.17 1711 5121 1711 5187.83 1711 5242 1765.17 5242 1832 5242 1898.83 5187.83 1953 5121 1953 5054.17 1953 5000 1898.83 5000 1832Z" fill="#767171" fill-rule="evenodd"/><text font-family="Arial,Arial_MSFontService,sans-serif" font-weight="400" font-size="64" transform="matrix(1 0 0 1 5266.15 1855)">Kafka<tspan fill="#262626" font-size="92" x="-243.505" y="-401">Enterprise</tspan><tspan fill="#262626" font-size="92" x="-250.953" y="-291">Integration</tspan></text><path d="M2044 2068C2044 2001.17 2098.17 1947 2165 1947 2231.83 1947 2286 2001.17 2286 2068 2286 2134.83 2231.83 2189 2165 2189 2098.17 2189 2044 2134.83 2044 2068Z" fill="#4472C4" fill-rule="evenodd"/><text fill="#FFFFFF" font-family="Calibri,Calibri_MSFontService,sans-serif" font-weight="400" font-size="64" transform="matrix(1 0 0 1 2122.64 2090)">ILO<tspan fill="#000000" font-family="Arial,Arial_MSFontService,sans-serif" font-size="64" x="196.736" y="-36">DSD</tspan><tspan fill="#000000" font-family="Arial,Arial_MSFontService,sans-serif" font-size="64" x="196.736" y="41">constructor</tspan></text><path d="M1728 2402C1728 2335.17 1782.17 2281 1849 2281 1915.83 2281 1970 2335.17 1970 2402 1970 2468.83 1915.83 2523 1849 2523 1782.17 2523 1728 2468.83 1728 2402Z" fill="#4472C4" fill-rule="evenodd"/><text fill="#FFFFFF" font-family="Calibri,Calibri_MSFontService,sans-serif" font-weight="400" font-size="64" transform="matrix(1 0 0 1 1768.04 2424)">SIS<tspan font-size="64" x="74.4791" y="0">-</tspan><tspan font-size="64" x="93.9583" y="0">CC</tspan><tspan fill="#000000" font-family="Arial,Arial_MSFontService,sans-serif" font-size="64" x="211.557" y="-33">SDMX Matrix</tspan><tspan fill="#000000" font-family="Arial,Arial_MSFontService,sans-serif" font-size="64" x="211.557" y="44">Generator</tspan></text><path d="M2386 1430C2386 1363.17 2440.17 1309 2507 1309 2573.83 1309 2628 1363.17 2628 1430 2628 1496.83 2573.83 1551 2507 1551 2440.17 1551 2386 1496.83 2386 1430Z" fill="#4472C4" fill-rule="evenodd"/><text fill="#FFFFFF" font-family="Calibri,Calibri_MSFontService,sans-serif" font-weight="400" font-size="64" transform="matrix(1 0 0 1 2441.64 1452)">Estat<tspan fill="#000000" font-family="Arial,Arial_MSFontService,sans-serif" font-size="64" x="222.068" y="-3">SDMX</tspan><tspan fill="#000000" font-family="Arial,Arial_MSFontService,sans-serif" font-size="64" x="407.693" y="-3">-</tspan><tspan fill="#000000" font-family="Arial,Arial_MSFontService,sans-serif" font-size="64" x="428.891" y="-3">RI</tspan></text><path d="M2321 3180C2321 3113.17 2375.17 3059 2442 3059 2508.83 3059 2563 3113.17 2563 3180 2563 3246.83 2508.83 3301 2442 3301 2375.17 3301 2321 3246.83 2321 3180Z" fill="#4472C4" fill-rule="evenodd"/><text fill="#FFFFFF" font-family="Calibri,Calibri_MSFontService,sans-serif" font-weight="400" font-size="64" transform="matrix(1 0 0 1 2399.24 3201)">ILO<tspan fill="#000000" font-family="Arial,Arial_MSFontService,sans-serif" font-size="64" x="187.547" y="2">SMART</tspan></text><path d="M1950 2809C1950 2742.17 2004.17 2688 2071 2688 2137.83 2688 2192 2742.17 2192 2809 2192 2875.83 2137.83 2930 2071 2930 2004.17 2930 1950 2875.83 1950 2809Z" fill="#4472C4" fill-rule="evenodd"/><text fill="#FFFFFF" font-family="Calibri,Calibri_MSFontService,sans-serif" font-weight="400" font-size="64" transform="matrix(1 0 0 1 1997.81 2830)">ISTAT<tspan fill="#000000" font-family="Arial,Arial_MSFontService,sans-serif" font-size="64" x="226.968" y="-64">Metadata</tspan><tspan fill="#000000" font-family="Arial,Arial_MSFontService,sans-serif" font-size="64" x="226.968" y="13">and data</tspan><tspan fill="#000000" font-family="Arial,Arial_MSFontService,sans-serif" font-size="64" x="226.968" y="90">manager</tspan></text><path d="M1783 1722C1783 1655.17 1837.17 1601 1904 1601 1970.83 1601 2025 1655.17 2025 1722 2025 1788.83 1970.83 1843 1904 1843 1837.17 1843 1783 1788.83 1783 1722Z" fill="#4472C4" fill-rule="evenodd"/><text fill="#FFFFFF" font-family="Calibri,Calibri_MSFontService,sans-serif" font-weight="400" font-size="64" transform="matrix(1 0 0 1 1838.46 1744)">Estat<tspan fill="#000000" font-family="Arial,Arial_MSFontService,sans-serif" font-size="64" x="205.156" y="-25">SDMX</tspan><tspan fill="#000000" font-family="Arial,Arial_MSFontService,sans-serif" font-size="64" x="205.156" y="52">Converter</tspan></text><path d="M2581 1823C2581 1756.17 2635.17 1702 2702 1702 2768.83 1702 2823 1756.17 2823 1823 2823 1889.83 2768.83 1944 2702 1944 2635.17 1944 2581 1889.83 2581 1823Z" fill="#4472C4" fill-rule="evenodd"/><text fill="#FFFFFF" font-family="Calibri,Calibri_MSFontService,sans-serif" font-weight="400" font-size="64" transform="matrix(1 0 0 1 2620.72 1845)">SIS<tspan font-size="64" x="74.4793" y="0">-</tspan><tspan font-size="64" x="93.9585" y="0">CC</tspan><tspan fill="#000000" font-family="Arial,Arial_MSFontService,sans-serif" font-size="64" x="230.702" y="-38">.Stat</tspan><tspan fill="#000000" font-family="Arial,Arial_MSFontService,sans-serif" font-size="64" x="230.702" y="39">suite</tspan></text><g clip-path="url(#clip2)"><g clip-path="url(#clip3)" filter="url(#fx0)" transform="translate(2604 2065)"><g clip-path="url(#clip4)"><path d="M22.7273 597.417C22.7273 280.025 280.025 22.7273 597.417 22.7273 914.81 22.7273 1172.11 280.025 1172.11 597.417 1172.11 914.81 914.81 1172.11 597.417 1172.11 280.025 1172.11 22.7273 914.81 22.7273 597.417Z" stroke="#2F528F" stroke-width="5" stroke-miterlimit="8" fill="#2A5BC9" fill-rule="evenodd"/></g></g></g><path d="M2610.5 2640.5C2610.5 2326.25 2865.25 2071.5 3179.5 2071.5 3493.75 2071.5 3748.5 2326.25 3748.5 2640.5 3748.5 2954.75 3493.75 3209.5 3179.5 3209.5 2865.25 3209.5 2610.5 2954.75 2610.5 2640.5Z" stroke="#2F528F" stroke-width="4.58333" stroke-miterlimit="8" fill="#2A5BC9" fill-rule="evenodd"/><path d="M2779 2761C2779 2694.17 2833.17 2640 2900 2640 2966.83 2640 3021 2694.17 3021 2761 3021 2827.83 2966.83 2882 2900 2882 2833.17 2882 2779 2827.83 2779 2761Z" fill="#FFFFFF" fill-rule="evenodd"/><text fill="#262626" font-family="Calibri,Calibri_MSFontService,sans-serif" font-weight="400" font-size="64" transform="matrix(1 0 0 1 2840.45 2782)">FMR</text><path d="M3144 2431.5C3144 2364.4 3198.17 2310 3265 2310 3331.83 2310 3386 2364.4 3386 2431.5 3386 2498.6 3331.83 2553 3265 2553 3198.17 2553 3144 2498.6 3144 2431.5Z" fill="#FFFFFF" fill-rule="evenodd"/><text fill="#262626" font-family="Calibri,Calibri_MSFontService,sans-serif" font-weight="400" font-size="64" transform="matrix(1 0 0 1 3179.45 2414)">Fusion<tspan font-size="64" x="55.2749" y="77">XL</tspan></text><path d="M3265 2882C3265 2815.17 3319.17 2761 3386 2761 3452.83 2761 3507 2815.17 3507 2882 3507 2948.83 3452.83 3003 3386 3003 3319.17 3003 3265 2948.83 3265 2882Z" fill="#FFFFFF" fill-rule="evenodd"/><text fill="#262626" font-family="Calibri,Calibri_MSFontService,sans-serif" font-weight="400" font-size="64" transform="matrix(1 0 0 1 3355.5 2903)">FT</text><path d="M0 0 193.592 158.083" stroke="#FFFFFF" stroke-width="2.29167" stroke-miterlimit="8" fill="none" fill-rule="evenodd" transform="matrix(-1 0 0 1 3179.59 2517)"/><text fill="#FFFFFF" font-family="Arial,Arial_MSFontService,sans-serif" font-weight="700" font-size="110" transform="matrix(1 0 0 1 2988.58 2233)">sdmx.io</text><path d="M284.5 2331C284.5 2040.77 519.998 1805.5 810.5 1805.5 1101 1805.5 1336.5 2040.77 1336.5 2331 1336.5 2621.23 1101 2856.5 810.5 2856.5 519.998 2856.5 284.5 2621.23 284.5 2331Z" stroke="#4472C4" stroke-width="4.58333" stroke-miterlimit="8" fill="none" fill-rule="evenodd"/><text fill="#262626" font-family="Arial,Arial_MSFontService,sans-serif" font-weight="400" font-size="92" transform="matrix(1 0 0 1 703.443 1940)">VTL</text><path d="M595 2352C595 2285.17 649.397 2231 716.5 2231 783.603 2231 838 2285.17 838 2352 838 2418.83 783.603 2473 716.5 2473 649.397 2473 595 2418.83 595 2352Z" fill="#4472C4" fill-rule="evenodd"/><text fill="#FFFFFF" font-family="Calibri,Calibri_MSFontService,sans-serif" font-weight="400" font-size="55" transform="matrix(1 0 0 1 649.118 2337)">Banca<tspan font-size="55" x="-8.86878" y="66">d’Italia</tspan><tspan fill="#000000" font-family="Arial,Arial_MSFontService,sans-serif" font-size="64" x="212.194" y="38">VTL engine</tspan></text></g></svg>
